# xmcd
#
# Track frame offsets:
#	150
#	16603
#	33248
#	47266
#	65026
#	82118
#	95796
#	108252
#	123660
#	139788
#	152828
#	169384
#	186356
#	202535
#
# Disc length: 2887 seconds
#
# Revision: 1
# Processed by: cddbd v1.5.2PL0 Copyright (c) Steve Scherf et al.
# Submitted via: EasyCDDAExtractor 12.0.0.1
#
DISCID=b80b450e
DTITLE=BABADO NOVO - Ver-te Mar
DYEAR=2006
DGENRE=AXE
TTITLE0=Insolação do Coração
TTITLE1=Doce Paixão
TTITLE2=E mesmo que a lua vá
TTITLE3=Pedindo um pouco mais
TTITLE4=Ver te mar
TTITLE5=Recife de fora
TTITLE6=Abra aí
TTITLE7=Coladinho
TTITLE8=Banho de Chuva
TTITLE9=Rock Tribal
TTITLE10=Distante de você
TTITLE11=Pensando em você
TTITLE12=Stay
TTITLE13=Amantes cinzas (Ao Vivo)
EXTD=
EXTT0=
EXTT1=
EXTT2=
EXTT3=
EXTT4=
EXTT5=
EXTT6=
EXTT7=
EXTT8=
EXTT9=
EXTT10=
EXTT11=
EXTT12=
EXTT13=
PLAYORDER=
